<?xml version="1.0" encoding="UTF-8"?>
<svg xmlns="http://www.w3.org/2000/svg" style="overflow: hidden;" aria-label="A chart." height="300" width="500"><defs id="_ABSTRACT_RENDERER_ID_4"></defs><rect fill="#ffffff" stroke-width="0" stroke="none" height="300" width="500" y="0" x="0"></rect><g><text fill="#000000" stroke-width="0" stroke="none" font-weight="bold" font-size="12" font-family="Arial" y="37.2" x="94" text-anchor="start">My Daily Activities</text><rect fill="#ffffff" fill-opacity="0" stroke-width="0" stroke="none" height="12" width="313" y="27" x="94"></rect></g><g><rect fill="#ffffff" fill-opacity="0" stroke-width="0" stroke="none" height="88" width="101" y="58" x="306"></rect><g><rect fill="#ffffff" fill-opacity="0" stroke-width="0" stroke="none" height="12" width="101" y="58" x="306"></rect><g><text fill="#222222" stroke-width="0" stroke="none" font-size="12" font-family="Arial" y="68.2" x="323" text-anchor="start">Work</text></g><circle fill="#3366cc" stroke-width="0" stroke="none" r="6" cy="64" cx="312"></circle></g><g><rect fill="#ffffff" fill-opacity="0" stroke-width="0" stroke="none" height="12" width="101" y="77" x="306"></rect><g><text fill="#222222" stroke-width="0" stroke="none" font-size="12" font-family="Arial" y="87.2" x="323" text-anchor="start">Eat</text></g><circle fill="#dc3912" stroke-width="0" stroke="none" r="6" cy="83" cx="312"></circle></g><g><rect fill="#ffffff" fill-opacity="0" stroke-width="0" stroke="none" height="12" width="101" y="96" x="306"></rect><g><text fill="#222222" stroke-width="0" stroke="none" font-size="12" font-family="Arial" y="106.2" x="323" text-anchor="start">Commute</text></g><circle fill="#ff9900" stroke-width="0" stroke="none" r="6" cy="102" cx="312"></circle></g><g><rect fill="#ffffff" fill-opacity="0" stroke-width="0" stroke="none" height="12" width="101" y="115" x="306"></rect><g><text fill="#222222" stroke-width="0" stroke="none" font-size="12" font-family="Arial" y="125.2" x="323" text-anchor="start">Watch TV</text></g><circle fill="#109618" stroke-width="0" stroke="none" r="6" cy="121" cx="312"></circle></g><g><rect fill="#ffffff" fill-opacity="0" stroke-width="0" stroke="none" height="12" width="101" y="134" x="306"></rect><g><text fill="#222222" stroke-width="0" stroke="none" font-size="12" font-family="Arial" y="144.2" x="323" text-anchor="start">Sleep</text></g><circle fill="#990099" stroke-width="0" stroke="none" r="6" cy="140" cx="312"></circle></g></g><g><path fill="#3366cc" stroke-width="1" stroke="#ffffff" d="M191,151L191,59A92,92,0,0,1,214.8113521494319,239.8651760185943L191,151A0,0,0,0,0,191,151"></path><text fill="#ffffff" stroke-width="0" stroke="none" font-size="12" font-family="Arial" y="144.88903519966337" x="269.3195532883212" text-anchor="start">45.8%</text></g><g><path fill="#990099" stroke-width="1" stroke="#ffffff" d="M191,151L102.13482398140573,174.81135214943194A92,92,0,0,1,191,59L191,151A0,0,0,0,0,191,151"></path><text fill="#ffffff" stroke-width="0" stroke="none" font-size="12" font-family="Arial" y="108.80891603947755" x="130.54196230904043" text-anchor="start">29.2%</text></g><g><path fill="#109618" stroke-width="1" stroke="#ffffff" d="M191,151L125.94617613083763,216.0538238691624A92,92,0,0,1,102.13482398140573,174.81135214943194L191,151A0,0,0,0,0,191,151"></path><text fill="#ffffff" stroke-width="0" stroke="none" font-size="12" font-family="Arial" y="193.6155358225341" x="124.46234015538876" text-anchor="start">8.3%</text></g><g><path fill="#ff9900" stroke-width="1" stroke="#ffffff" d="M191,151L167.1886478505681,239.8651760185943A92,92,0,0,1,125.94617613083763,216.0538238691624L191,151A0,0,0,0,0,191,151"></path><text fill="#ffffff" stroke-width="0" stroke="none" font-size="12" font-family="Arial" y="219.93330123574924" x="153.62621110600702" text-anchor="start">8.3%</text></g><g><path fill="#dc3912" stroke-width="1" stroke="#ffffff" d="M191,151L214.8113521494319,239.8651760185943A92,92,0,0,1,167.1886478505681,239.8651760185943L191,151A0,0,0,0,0,191,151"></path><text fill="#ffffff" stroke-width="0" stroke="none" font-size="12" font-family="Arial" y="229.2" x="191" text-anchor="start">8.3%</text></g><g></g></svg>
