<svg version="1.1" xmlns="http://www.w3.org/2000/svg" viewBox="0 0 576 432" height="432pt" width="576pt" xmlns:xlink="http://www.w3.org/1999/xlink">
 <metadata>
  
   
    
    2025-07-03T00:55:17.417000
    image/svg+xml
    
     
      Matplotlib v3.8.4, https://matplotlib.org/
     
    
   
  
 </metadata>
 <defs>
  <style type="text/css">*{stroke-linejoin: round; stroke-linecap: butt}</style>
 </defs>
 <g id="figure_1">
  <g id="patch_1">
   <path style="fill: #ffffff" d="M 0 432 
L 576 432 
L 576 0 
L 0 0 
z"></path>
  </g>
  <g id="axes_1">
   <g id="patch_2">
    <path style="fill: #ffffff" d="M 72 384.48 
L 518.4 384.48 
L 518.4 51.84 
L 72 51.84 
z"></path>
   </g>
   <g id="matplotlib.axis_1">
    <g id="xtick_1">
     <g id="line2d_1">
      <path style="fill: none; stroke: #b0b0b0; stroke-width: 0.8; stroke-linecap: square" clip-path="url(#ped4c69fd27)" d="M 92.290909 384.48 
L 92.290909 51.84"></path>
     </g>
     <g id="line2d_2">
      <defs>
       <path style="stroke: #000000; stroke-width: 0.8" d="M 0 0 
L 0 3.5" id="mdeabbb2d79"></path>
      </defs>
      <g>
       
      </g>
     </g>
     <g id="text_1">
      
      <g transform="translate(89.109659 399.078438) scale(0.1 -0.1)">
       <defs>
        <path transform="scale(0.015625)" d="M 2034 4250 
Q 1547 4250 1301 3770 
Q 1056 3291 1056 2328 
Q 1056 1369 1301 889 
Q 1547 409 2034 409 
Q 2525 409 2770 889 
Q 3016 1369 3016 2328 
Q 3016 3291 2770 3770 
Q 2525 4250 2034 4250 
z
M 2034 4750 
Q 2819 4750 3233 4129 
Q 3647 3509 3647 2328 
Q 3647 1150 3233 529 
Q 2819 -91 2034 -91 
Q 1250 -91 836 529 
Q 422 1150 422 2328 
Q 422 3509 836 4129 
Q 1250 4750 2034 4750 
z" id="DejaVuSans-30"></path>
       </defs>
       
      </g>
     </g>
    </g>
    <g id="xtick_2">
     <g id="line2d_3">
      <path style="fill: none; stroke: #b0b0b0; stroke-width: 0.8; stroke-linecap: square" clip-path="url(#ped4c69fd27)" d="M 156.878879 384.48 
L 156.878879 51.84"></path>
     </g>
     <g id="line2d_4">
      <g>
       
      </g>
     </g>
     <g id="text_2">
      
      <g transform="translate(153.697629 399.078438) scale(0.1 -0.1)">
       <defs>
        <path transform="scale(0.015625)" d="M 794 531 
L 1825 531 
L 1825 4091 
L 703 3866 
L 703 4441 
L 1819 4666 
L 2450 4666 
L 2450 531 
L 3481 531 
L 3481 0 
L 794 0 
L 794 531 
z" id="DejaVuSans-31"></path>
       </defs>
       
      </g>
     </g>
    </g>
    <g id="xtick_3">
     <g id="line2d_5">
      <path style="fill: none; stroke: #b0b0b0; stroke-width: 0.8; stroke-linecap: square" clip-path="url(#ped4c69fd27)" d="M 221.466848 384.48 
L 221.466848 51.84"></path>
     </g>
     <g id="line2d_6">
      <g>
       
      </g>
     </g>
     <g id="text_3">
      
      <g transform="translate(218.285598 399.078438) scale(0.1 -0.1)">
       <defs>
        <path transform="scale(0.015625)" d="M 1228 531 
L 3431 531 
L 3431 0 
L 469 0 
L 469 531 
Q 828 903 1448 1529 
Q 2069 2156 2228 2338 
Q 2531 2678 2651 2914 
Q 2772 3150 2772 3378 
Q 2772 3750 2511 3984 
Q 2250 4219 1831 4219 
Q 1534 4219 1204 4116 
Q 875 4013 500 3803 
L 500 4441 
Q 881 4594 1212 4672 
Q 1544 4750 1819 4750 
Q 2544 4750 2975 4387 
Q 3406 4025 3406 3419 
Q 3406 3131 3298 2873 
Q 3191 2616 2906 2266 
Q 2828 2175 2409 1742 
Q 1991 1309 1228 531 
z" id="DejaVuSans-32"></path>
       </defs>
       
      </g>
     </g>
    </g>
    <g id="xtick_4">
     <g id="line2d_7">
      <path style="fill: none; stroke: #b0b0b0; stroke-width: 0.8; stroke-linecap: square" clip-path="url(#ped4c69fd27)" d="M 286.054818 384.48 
L 286.054818 51.84"></path>
     </g>
     <g id="line2d_8">
      <g>
       
      </g>
     </g>
     <g id="text_4">
      
      <g transform="translate(282.873568 399.078438) scale(0.1 -0.1)">
       <defs>
        <path transform="scale(0.015625)" d="M 2597 2516 
Q 3050 2419 3304 2112 
Q 3559 1806 3559 1356 
Q 3559 666 3084 287 
Q 2609 -91 1734 -91 
Q 1441 -91 1130 -33 
Q 819 25 488 141 
L 488 750 
Q 750 597 1062 519 
Q 1375 441 1716 441 
Q 2309 441 2620 675 
Q 2931 909 2931 1356 
Q 2931 1769 2642 2001 
Q 2353 2234 1838 2234 
L 1294 2234 
L 1294 2753 
L 1863 2753 
Q 2328 2753 2575 2939 
Q 2822 3125 2822 3475 
Q 2822 3834 2567 4026 
Q 2313 4219 1838 4219 
Q 1578 4219 1281 4162 
Q 984 4106 628 3988 
L 628 4550 
Q 988 4650 1302 4700 
Q 1616 4750 1894 4750 
Q 2613 4750 3031 4423 
Q 3450 4097 3450 3541 
Q 3450 3153 3228 2886 
Q 3006 2619 2597 2516 
z" id="DejaVuSans-33"></path>
       </defs>
       
      </g>
     </g>
    </g>
    <g id="xtick_5">
     <g id="line2d_9">
      <path style="fill: none; stroke: #b0b0b0; stroke-width: 0.8; stroke-linecap: square" clip-path="url(#ped4c69fd27)" d="M 350.642788 384.48 
L 350.642788 51.84"></path>
     </g>
     <g id="line2d_10">
      <g>
       
      </g>
     </g>
     <g id="text_5">
      
      <g transform="translate(347.461538 399.078438) scale(0.1 -0.1)">
       <defs>
        <path transform="scale(0.015625)" d="M 2419 4116 
L 825 1625 
L 2419 1625 
L 2419 4116 
z
M 2253 4666 
L 3047 4666 
L 3047 1625 
L 3713 1625 
L 3713 1100 
L 3047 1100 
L 3047 0 
L 2419 0 
L 2419 1100 
L 313 1100 
L 313 1709 
L 2253 4666 
z" id="DejaVuSans-34"></path>
       </defs>
       
      </g>
     </g>
    </g>
    <g id="xtick_6">
     <g id="line2d_11">
      <path style="fill: none; stroke: #b0b0b0; stroke-width: 0.8; stroke-linecap: square" clip-path="url(#ped4c69fd27)" d="M 415.230757 384.48 
L 415.230757 51.84"></path>
     </g>
     <g id="line2d_12">
      <g>
       
      </g>
     </g>
     <g id="text_6">
      
      <g transform="translate(412.049507 399.078438) scale(0.1 -0.1)">
       <defs>
        <path transform="scale(0.015625)" d="M 691 4666 
L 3169 4666 
L 3169 4134 
L 1269 4134 
L 1269 2991 
Q 1406 3038 1543 3061 
Q 1681 3084 1819 3084 
Q 2600 3084 3056 2656 
Q 3513 2228 3513 1497 
Q 3513 744 3044 326 
Q 2575 -91 1722 -91 
Q 1428 -91 1123 -41 
Q 819 9 494 109 
L 494 744 
Q 775 591 1075 516 
Q 1375 441 1709 441 
Q 2250 441 2565 725 
Q 2881 1009 2881 1497 
Q 2881 1984 2565 2268 
Q 2250 2553 1709 2553 
Q 1456 2553 1204 2497 
Q 953 2441 691 2322 
L 691 4666 
z" id="DejaVuSans-35"></path>
       </defs>
       
      </g>
     </g>
    </g>
    <g id="xtick_7">
     <g id="line2d_13">
      <path style="fill: none; stroke: #b0b0b0; stroke-width: 0.8; stroke-linecap: square" clip-path="url(#ped4c69fd27)" d="M 479.818727 384.48 
L 479.818727 51.84"></path>
     </g>
     <g id="line2d_14">
      <g>
       
      </g>
     </g>
     <g id="text_7">
      
      <g transform="translate(476.637477 399.078438) scale(0.1 -0.1)">
       <defs>
        <path transform="scale(0.015625)" d="M 2113 2584 
Q 1688 2584 1439 2293 
Q 1191 2003 1191 1497 
Q 1191 994 1439 701 
Q 1688 409 2113 409 
Q 2538 409 2786 701 
Q 3034 994 3034 1497 
Q 3034 2003 2786 2293 
Q 2538 2584 2113 2584 
z
M 3366 4563 
L 3366 3988 
Q 3128 4100 2886 4159 
Q 2644 4219 2406 4219 
Q 1781 4219 1451 3797 
Q 1122 3375 1075 2522 
Q 1259 2794 1537 2939 
Q 1816 3084 2150 3084 
Q 2853 3084 3261 2657 
Q 3669 2231 3669 1497 
Q 3669 778 3244 343 
Q 2819 -91 2113 -91 
Q 1303 -91 875 529 
Q 447 1150 447 2328 
Q 447 3434 972 4092 
Q 1497 4750 2381 4750 
Q 2619 4750 2861 4703 
Q 3103 4656 3366 4563 
z" id="DejaVuSans-36"></path>
       </defs>
       
      </g>
     </g>
    </g>
    <g id="text_8">
     
     <g transform="translate(292.240625 412.756563) scale(0.1 -0.1)">
      <defs>
       <path transform="scale(0.015625)" d="M 3513 3500 
L 2247 1797 
L 3578 0 
L 2900 0 
L 1881 1375 
L 863 0 
L 184 0 
L 1544 1831 
L 300 3500 
L 978 3500 
L 1906 2253 
L 2834 3500 
L 3513 3500 
z" id="DejaVuSans-78"></path>
      </defs>
      
     </g>
    </g>
   </g>
   <g id="matplotlib.axis_2">
    <g id="ytick_1">
     <g id="line2d_15">
      <path style="fill: none; stroke: #b0b0b0; stroke-width: 0.8; stroke-linecap: square" clip-path="url(#ped4c69fd27)" d="M 72 369.379034 
L 518.4 369.379034"></path>
     </g>
     <g id="line2d_16">
      <defs>
       <path style="stroke: #000000; stroke-width: 0.8" d="M 0 0 
L -3.5 0" id="md153ca6139"></path>
      </defs>
      <g>
       
      </g>
     </g>
     <g id="text_9">
      
      <g transform="translate(34.354687 373.178253) scale(0.1 -0.1)">
       <defs>
        <path transform="scale(0.015625)" d="M 678 2272 
L 4684 2272 
L 4684 1741 
L 678 1741 
L 678 2272 
z" id="DejaVuSans-2212"></path>
        <path transform="scale(0.015625)" d="M 684 794 
L 1344 794 
L 1344 0 
L 684 0 
L 684 794 
z" id="DejaVuSans-2e"></path>
       </defs>
       
       
       
       
       
      </g>
     </g>
    </g>
    <g id="ytick_2">
     <g id="line2d_17">
      <path style="fill: none; stroke: #b0b0b0; stroke-width: 0.8; stroke-linecap: square" clip-path="url(#ped4c69fd27)" d="M 72 331.574276 
L 518.4 331.574276"></path>
     </g>
     <g id="line2d_18">
      <g>
       
      </g>
     </g>
     <g id="text_10">
      
      <g transform="translate(34.354687 335.373494) scale(0.1 -0.1)">
       <defs>
        <path transform="scale(0.015625)" d="M 525 4666 
L 3525 4666 
L 3525 4397 
L 1831 0 
L 1172 0 
L 2766 4134 
L 525 4134 
L 525 4666 
z" id="DejaVuSans-37"></path>
       </defs>
       
       
       
       
       
      </g>
     </g>
    </g>
    <g id="ytick_3">
     <g id="line2d_19">
      <path style="fill: none; stroke: #b0b0b0; stroke-width: 0.8; stroke-linecap: square" clip-path="url(#ped4c69fd27)" d="M 72 293.769517 
L 518.4 293.769517"></path>
     </g>
     <g id="line2d_20">
      <g>
       
      </g>
     </g>
     <g id="text_11">
      
      <g transform="translate(34.354687 297.568736) scale(0.1 -0.1)">
       
       
       
       
       
      </g>
     </g>
    </g>
    <g id="ytick_4">
     <g id="line2d_21">
      <path style="fill: none; stroke: #b0b0b0; stroke-width: 0.8; stroke-linecap: square" clip-path="url(#ped4c69fd27)" d="M 72 255.964759 
L 518.4 255.964759"></path>
     </g>
     <g id="line2d_22">
      <g>
       
      </g>
     </g>
     <g id="text_12">
      
      <g transform="translate(34.354687 259.763977) scale(0.1 -0.1)">
       
       
       
       
       
      </g>
     </g>
    </g>
    <g id="ytick_5">
     <g id="line2d_23">
      <path style="fill: none; stroke: #b0b0b0; stroke-width: 0.8; stroke-linecap: square" clip-path="url(#ped4c69fd27)" d="M 72 218.16 
L 518.4 218.16"></path>
     </g>
     <g id="line2d_24">
      <g>
       
      </g>
     </g>
     <g id="text_13">
      
      <g transform="translate(42.734375 221.959219) scale(0.1 -0.1)">
       
       
       
       
      </g>
     </g>
    </g>
    <g id="ytick_6">
     <g id="line2d_25">
      <path style="fill: none; stroke: #b0b0b0; stroke-width: 0.8; stroke-linecap: square" clip-path="url(#ped4c69fd27)" d="M 72 180.355241 
L 518.4 180.355241"></path>
     </g>
     <g id="line2d_26">
      <g>
       
      </g>
     </g>
     <g id="text_14">
      
      <g transform="translate(42.734375 184.15446) scale(0.1 -0.1)">
       
       
       
       
      </g>
     </g>
    </g>
    <g id="ytick_7">
     <g id="line2d_27">
      <path style="fill: none; stroke: #b0b0b0; stroke-width: 0.8; stroke-linecap: square" clip-path="url(#ped4c69fd27)" d="M 72 142.550483 
L 518.4 142.550483"></path>
     </g>
     <g id="line2d_28">
      <g>
       
      </g>
     </g>
     <g id="text_15">
      
      <g transform="translate(42.734375 146.349702) scale(0.1 -0.1)">
       
       
       
       
      </g>
     </g>
    </g>
    <g id="ytick_8">
     <g id="line2d_29">
      <path style="fill: none; stroke: #b0b0b0; stroke-width: 0.8; stroke-linecap: square" clip-path="url(#ped4c69fd27)" d="M 72 104.745724 
L 518.4 104.745724"></path>
     </g>
     <g id="line2d_30">
      <g>
       
      </g>
     </g>
     <g id="text_16">
      
      <g transform="translate(42.734375 108.544943) scale(0.1 -0.1)">
       
       
       
       
      </g>
     </g>
    </g>
    <g id="ytick_9">
     <g id="line2d_31">
      <path style="fill: none; stroke: #b0b0b0; stroke-width: 0.8; stroke-linecap: square" clip-path="url(#ped4c69fd27)" d="M 72 66.940966 
L 518.4 66.940966"></path>
     </g>
     <g id="line2d_32">
      <g>
       
      </g>
     </g>
     <g id="text_17">
      
      <g transform="translate(42.734375 70.740184) scale(0.1 -0.1)">
       
       
       
       
      </g>
     </g>
    </g>
    <g id="text_18">
     
     <g transform="translate(28.275 221.119375) rotate(-90) scale(0.1 -0.1)">
      <defs>
       <path transform="scale(0.015625)" d="M 2059 -325 
Q 1816 -950 1584 -1140 
Q 1353 -1331 966 -1331 
L 506 -1331 
L 506 -850 
L 844 -850 
Q 1081 -850 1212 -737 
Q 1344 -625 1503 -206 
L 1606 56 
L 191 3500 
L 800 3500 
L 1894 763 
L 2988 3500 
L 3597 3500 
L 2059 -325 
z" id="DejaVuSans-79"></path>
      </defs>
      
     </g>
    </g>
   </g>
   <g id="line2d_33">
    <path style="fill: none; stroke: #0000ff; stroke-width: 2; stroke-linecap: square" clip-path="url(#ped4c69fd27)" d="M 92.290909 218.16 
L 96.390083 208.569096 
L 100.489256 199.016811 
L 104.58843 189.54161 
L 108.687603 180.181644 
L 112.786777 170.974604 
L 116.88595 161.957562 
L 120.985124 153.166828 
L 125.084298 144.637799 
L 129.183471 136.404818 
L 133.282645 128.501036 
L 137.381818 120.958278 
L 141.480992 113.806918 
L 145.580165 107.075751 
L 149.679339 100.791881 
L 153.778512 94.980611 
L 157.877686 89.665341 
L 161.97686 84.867474 
L 166.076033 80.606328 
L 170.175207 76.899063 
L 174.27438 73.760605 
L 178.373554 71.203593 
L 182.472727 69.238323 
L 186.571901 67.872707 
L 190.671074 67.112246 
L 194.770248 66.96 
L 198.869421 67.416583 
L 202.968595 68.480157 
L 207.067769 70.146439 
L 211.166942 72.40872 
L 215.266116 75.257889 
L 219.365289 78.682474 
L 223.464463 82.668687 
L 227.563636 87.200475 
L 231.66281 92.259591 
L 235.761983 97.825663 
L 239.861157 103.876279 
L 243.960331 110.387076 
L 248.059504 117.331836 
L 252.158678 124.682595 
L 256.257851 132.409755 
L 260.357025 140.482201 
L 264.456198 148.867428 
L 268.555372 157.531672 
L 272.654545 166.440044 
L 276.753719 175.556675 
L 280.852893 184.844854 
L 284.952066 194.267181 
L 289.05124 203.785717 
L 293.150413 213.362133 
L 297.249587 222.957867 
L 301.34876 232.534283 
L 305.447934 242.052819 
L 309.547107 251.475146 
L 313.646281 260.763325 
L 317.745455 269.879956 
L 321.844628 278.788328 
L 325.943802 287.452572 
L 330.042975 295.837799 
L 334.142149 303.910245 
L 338.241322 311.637405 
L 342.340496 318.988164 
L 346.439669 325.932924 
L 350.538843 332.443721 
L 354.638017 338.494337 
L 358.73719 344.060409 
L 362.836364 349.119525 
L 366.935537 353.651313 
L 371.034711 357.637526 
L 375.133884 361.062111 
L 379.233058 363.91128 
L 383.332231 366.173561 
L 387.431405 367.839843 
L 391.530579 368.903417 
L 395.629752 369.36 
L 399.728926 369.207754 
L 403.828099 368.447293 
L 407.927273 367.081677 
L 412.026446 365.116407 
L 416.12562 362.559395 
L 420.224793 359.420937 
L 424.323967 355.713672 
L 428.42314 351.452526 
L 432.522314 346.654659 
L 436.621488 341.339389 
L 440.720661 335.528119 
L 444.819835 329.244249 
L 448.919008 322.513082 
L 453.018182 315.361722 
L 457.117355 307.818964 
L 461.216529 299.915182 
L 465.315702 291.682201 
L 469.414876 283.153172 
L 473.51405 274.362438 
L 477.613223 265.345396 
L 481.712397 256.138356 
L 485.81157 246.77839 
L 489.910744 237.303189 
L 494.009917 227.750904 
L 498.109091 218.16"></path>
   </g>
   <g id="patch_3">
    <path style="fill: none; stroke: #000000; stroke-width: 0.8; stroke-linejoin: miter; stroke-linecap: square" d="M 72 384.48 
L 72 51.84"></path>
   </g>
   <g id="patch_4">
    <path style="fill: none; stroke: #000000; stroke-width: 0.8; stroke-linejoin: miter; stroke-linecap: square" d="M 518.4 384.48 
L 518.4 51.84"></path>
   </g>
   <g id="patch_5">
    <path style="fill: none; stroke: #000000; stroke-width: 0.8; stroke-linejoin: miter; stroke-linecap: square" d="M 72 384.48 
L 518.4 384.48"></path>
   </g>
   <g id="patch_6">
    <path style="fill: none; stroke: #000000; stroke-width: 0.8; stroke-linejoin: miter; stroke-linecap: square" d="M 72 51.84 
L 518.4 51.84"></path>
   </g>
   <g id="text_19">
    
    <g transform="translate(241.457812 45.84) scale(0.12 -0.12)">
     <defs>
      <path transform="scale(0.015625)" d="M 3425 4513 
L 3425 3897 
Q 3066 4069 2747 4153 
Q 2428 4238 2131 4238 
Q 1616 4238 1336 4038 
Q 1056 3838 1056 3469 
Q 1056 3159 1242 3001 
Q 1428 2844 1947 2747 
L 2328 2669 
Q 3034 2534 3370 2195 
Q 3706 1856 3706 1288 
Q 3706 609 3251 259 
Q 2797 -91 1919 -91 
Q 1588 -91 1214 -16 
Q 841 59 441 206 
L 441 856 
Q 825 641 1194 531 
Q 1563 422 1919 422 
Q 2459 422 2753 634 
Q 3047 847 3047 1241 
Q 3047 1584 2836 1778 
Q 2625 1972 2144 2069 
L 1759 2144 
Q 1053 2284 737 2584 
Q 422 2884 422 3419 
Q 422 4038 858 4394 
Q 1294 4750 2059 4750 
Q 2388 4750 2728 4690 
Q 3069 4631 3425 4513 
z" id="DejaVuSans-53"></path>
      <path transform="scale(0.015625)" d="M 603 3500 
L 1178 3500 
L 1178 0 
L 603 0 
L 603 3500 
z
M 603 4863 
L 1178 4863 
L 1178 4134 
L 603 4134 
L 603 4863 
z" id="DejaVuSans-69"></path>
      <path transform="scale(0.015625)" d="M 3328 2828 
Q 3544 3216 3844 3400 
Q 4144 3584 4550 3584 
Q 5097 3584 5394 3201 
Q 5691 2819 5691 2113 
L 5691 0 
L 5113 0 
L 5113 2094 
Q 5113 2597 4934 2840 
Q 4756 3084 4391 3084 
Q 3944 3084 3684 2787 
Q 3425 2491 3425 1978 
L 3425 0 
L 2847 0 
L 2847 2094 
Q 2847 2600 2669 2842 
Q 2491 3084 2119 3084 
Q 1678 3084 1418 2786 
Q 1159 2488 1159 1978 
L 1159 0 
L 581 0 
L 581 3500 
L 1159 3500 
L 1159 2956 
Q 1356 3278 1631 3431 
Q 1906 3584 2284 3584 
Q 2666 3584 2933 3390 
Q 3200 3197 3328 2828 
z" id="DejaVuSans-6d"></path>
      <path transform="scale(0.015625)" d="M 1159 525 
L 1159 -1331 
L 581 -1331 
L 581 3500 
L 1159 3500 
L 1159 2969 
Q 1341 3281 1617 3432 
Q 1894 3584 2278 3584 
Q 2916 3584 3314 3078 
Q 3713 2572 3713 1747 
Q 3713 922 3314 415 
Q 2916 -91 2278 -91 
Q 1894 -91 1617 61 
Q 1341 213 1159 525 
z
M 3116 1747 
Q 3116 2381 2855 2742 
Q 2594 3103 2138 3103 
Q 1681 3103 1420 2742 
Q 1159 2381 1159 1747 
Q 1159 1113 1420 752 
Q 1681 391 2138 391 
Q 2594 391 2855 752 
Q 3116 1113 3116 1747 
z" id="DejaVuSans-70"></path>
      <path transform="scale(0.015625)" d="M 603 4863 
L 1178 4863 
L 1178 0 
L 603 0 
L 603 4863 
z" id="DejaVuSans-6c"></path>
      <path transform="scale(0.015625)" d="M 3597 1894 
L 3597 1613 
L 953 1613 
Q 991 1019 1311 708 
Q 1631 397 2203 397 
Q 2534 397 2845 478 
Q 3156 559 3463 722 
L 3463 178 
Q 3153 47 2828 -22 
Q 2503 -91 2169 -91 
Q 1331 -91 842 396 
Q 353 884 353 1716 
Q 353 2575 817 3079 
Q 1281 3584 2069 3584 
Q 2775 3584 3186 3129 
Q 3597 2675 3597 1894 
z
M 3022 2063 
Q 3016 2534 2758 2815 
Q 2500 3097 2075 3097 
Q 1594 3097 1305 2825 
Q 1016 2553 972 2059 
L 3022 2063 
z" id="DejaVuSans-65"></path>
      <path transform="scale(0.015625)" id="DejaVuSans-20"></path>
      <path transform="scale(0.015625)" d="M 3513 2113 
L 3513 0 
L 2938 0 
L 2938 2094 
Q 2938 2591 2744 2837 
Q 2550 3084 2163 3084 
Q 1697 3084 1428 2787 
Q 1159 2491 1159 1978 
L 1159 0 
L 581 0 
L 581 3500 
L 1159 3500 
L 1159 2956 
Q 1366 3272 1645 3428 
Q 1925 3584 2291 3584 
Q 2894 3584 3203 3211 
Q 3513 2838 3513 2113 
z" id="DejaVuSans-6e"></path>
      <path transform="scale(0.015625)" d="M 213 4666 
L 850 4666 
L 1831 722 
L 2809 4666 
L 3519 4666 
L 4500 722 
L 5478 4666 
L 6119 4666 
L 4947 0 
L 4153 0 
L 3169 4050 
L 2175 0 
L 1381 0 
L 213 4666 
z" id="DejaVuSans-57"></path>
      <path transform="scale(0.015625)" d="M 2194 1759 
Q 1497 1759 1228 1600 
Q 959 1441 959 1056 
Q 959 750 1161 570 
Q 1363 391 1709 391 
Q 2188 391 2477 730 
Q 2766 1069 2766 1631 
L 2766 1759 
L 2194 1759 
z
M 3341 1997 
L 3341 0 
L 2766 0 
L 2766 531 
Q 2569 213 2275 61 
Q 1981 -91 1556 -91 
Q 1019 -91 701 211 
Q 384 513 384 1019 
Q 384 1609 779 1909 
Q 1175 2209 1959 2209 
L 2766 2209 
L 2766 2266 
Q 2766 2663 2505 2880 
Q 2244 3097 1772 3097 
Q 1472 3097 1187 3025 
Q 903 2953 641 2809 
L 641 3341 
Q 956 3463 1253 3523 
Q 1550 3584 1831 3584 
Q 2591 3584 2966 3190 
Q 3341 2797 3341 1997 
z" id="DejaVuSans-61"></path>
      <path transform="scale(0.015625)" d="M 191 3500 
L 800 3500 
L 1894 563 
L 2988 3500 
L 3597 3500 
L 2284 0 
L 1503 0 
L 191 3500 
z" id="DejaVuSans-76"></path>
     </defs>
     
     
     
     
     
     
     
     
     
     
     
     
     
     
     
     
    </g>
   </g>
   <g id="legend_1">
    <g id="patch_7">
     <path style="fill: #ffffff; opacity: 0.8; stroke: #cccccc; stroke-linejoin: miter" d="M 451.353125 74.518125 
L 511.4 74.518125 
Q 513.4 74.518125 513.4 72.518125 
L 513.4 58.84 
Q 513.4 56.84 511.4 56.84 
L 451.353125 56.84 
Q 449.353125 56.84 449.353125 58.84 
L 449.353125 72.518125 
Q 449.353125 74.518125 451.353125 74.518125 
z"></path>
    </g>
    <g id="line2d_34">
     <path style="fill: none; stroke: #0000ff; stroke-width: 2; stroke-linecap: square" d="M 453.353125 64.938438 
L 463.353125 64.938438 
L 473.353125 64.938438"></path>
    </g>
    <g id="text_20">
     
     <g transform="translate(481.353125 68.438438) scale(0.1 -0.1)">
      <defs>
       <path transform="scale(0.015625)" d="M 2834 3397 
L 2834 2853 
Q 2591 2978 2328 3040 
Q 2066 3103 1784 3103 
Q 1356 3103 1142 2972 
Q 928 2841 928 2578 
Q 928 2378 1081 2264 
Q 1234 2150 1697 2047 
L 1894 2003 
Q 2506 1872 2764 1633 
Q 3022 1394 3022 966 
Q 3022 478 2636 193 
Q 2250 -91 1575 -91 
Q 1294 -91 989 -36 
Q 684 19 347 128 
L 347 722 
Q 666 556 975 473 
Q 1284 391 1588 391 
Q 1994 391 2212 530 
Q 2431 669 2431 922 
Q 2431 1156 2273 1281 
Q 2116 1406 1581 1522 
L 1381 1569 
Q 847 1681 609 1914 
Q 372 2147 372 2553 
Q 372 3047 722 3315 
Q 1072 3584 1716 3584 
Q 2034 3584 2315 3537 
Q 2597 3491 2834 3397 
z" id="DejaVuSans-73"></path>
       <path transform="scale(0.015625)" d="M 1984 4856 
Q 1566 4138 1362 3434 
Q 1159 2731 1159 2009 
Q 1159 1288 1364 580 
Q 1569 -128 1984 -844 
L 1484 -844 
Q 1016 -109 783 600 
Q 550 1309 550 2009 
Q 550 2706 781 3412 
Q 1013 4119 1484 4856 
L 1984 4856 
z" id="DejaVuSans-28"></path>
       <path transform="scale(0.015625)" d="M 513 4856 
L 1013 4856 
Q 1481 4119 1714 3412 
Q 1947 2706 1947 2009 
Q 1947 1309 1714 600 
Q 1481 -109 1013 -844 
L 513 -844 
Q 928 -128 1133 580 
Q 1338 1288 1338 2009 
Q 1338 2731 1133 3434 
Q 928 4138 513 4856 
z" id="DejaVuSans-29"></path>
      </defs>
      
      
      
      
      
      
     </g>
    </g>
   </g>
  </g>
 </g>
 <defs>
  <clipPath id="ped4c69fd27">
   <rect height="332.64" width="446.4" y="51.84" x="72"></rect>
  </clipPath>
 </defs>
</svg>
